<svg id="Layer_1" data-name="Layer 1" xmlns="http://www.w3.org/2000/svg" viewBox="0 0 618 362.13"><defs><style>.cls-1,.cls-2,.cls-25,.cls-27,.cls-28,.cls-3,.cls-30,.cls-31,.cls-33,.cls-35,.cls-37,.cls-39,.cls-4,.cls-40,.cls-41,.cls-42,.cls-44,.cls-45,.cls-46,.cls-47,.cls-6{fill:none;}.cls-1,.cls-34,.cls-49,.cls-7,.cls-8{isolation:isolate;}.cls-2,.cls-35{stroke:#d7b756;}.cls-12,.cls-17,.cls-19,.cls-2,.cls-20,.cls-21,.cls-22,.cls-25,.cls-26,.cls-27,.cls-28,.cls-29,.cls-3,.cls-30,.cls-31,.cls-32,.cls-33,.cls-35,.cls-37,.cls-39,.cls-4,.cls-40,.cls-41,.cls-42,.cls-44,.cls-45,.cls-46,.cls-47,.cls-5{stroke-width:2px;}.cls-12,.cls-18,.cls-3,.cls-33{stroke:#6c8ebf;}.cls-4,.cls-5{stroke:#595959;}.cls-25,.cls-27,.cls-28,.cls-29,.cls-30,.cls-31,.cls-32,.cls-33,.cls-35,.cls-39,.cls-4,.cls-40,.cls-41,.cls-42,.cls-44,.cls-45,.cls-46,.cls-47,.cls-5{stroke-miterlimit:10;}.cls-36,.cls-49,.cls-5,.cls-7,.cls-8{fill:#595959;}.cls-7{font-size:10px;}.cls-34,.cls-7,.cls-8{font-family:Helvetica;}.cls-34,.cls-8{font-size:14px;}.cls-9{letter-spacing:-0.07em;}.cls-10{letter-spacing:-0.02em;}.cls-11,.cls-20{fill:#e1d5e7;stroke:#9673a6;}.cls-11,.cls-13,.cls-14,.cls-15,.cls-16,.cls-18,.cls-23{stroke-width:2px;}.cls-12,.cls-18{fill:#dae8fc;}.cls-13,.cls-19{fill:#fff2cc;stroke:#d6b656;}.cls-14,.cls-17{fill:#d5e8d4;stroke:#82b366;}.cls-15,.cls-26{fill:#ffe6cc;stroke:#d79b00;}.cls-16,.cls-21{fill:#f8cecc;stroke:#b85450;}.cls-22,.cls-23,.cls-24{fill:#fff;}.cls-22,.cls-23,.cls-24,.cls-25{stroke:#cfcfcf;}.cls-24{stroke-width:2px;}.cls-27,.cls-28{stroke:#929292;}.cls-28{stroke-dasharray:3.05 3.05;}.cls-29{fill:#b2b2b1;stroke:#b2b2b1;}.cls-30,.cls-31{stroke:#bebebd;}.cls-31{stroke-dasharray:2.8 2.8;}.cls-32{fill:#929292;stroke:#949494;}.cls-37{stroke:#504f4e;stroke-linejoin:round;}.cls-37,.cls-39,.cls-40,.cls-41,.cls-42,.cls-44,.cls-45,.cls-46,.cls-47{stroke-linecap:round;}.cls-38{fill:#504f4e;}.cls-39,.cls-40,.cls-41,.cls-42{stroke:#838382;}.cls-40{stroke-dasharray:4.2 4.2;}.cls-41{stroke-dasharray:5.04 5.04;}.cls-42{stroke-dasharray:4.18 4.18;}.cls-43{fill:#838382;}.cls-44,.cls-45,.cls-46,.cls-47{stroke:silver;}.cls-45{stroke-dasharray:5.4 5.4;}.cls-46{stroke-dasharray:4.78 4.78;}.cls-47{stroke-dasharray:6.18 6.18;}.cls-48{fill:silver;}</style></defs><path class="cls-1" d="M0,0" transform="translate(0 -1.46)"/><rect class="cls-2" x="1" y="187.54" width="100" height="101"/><rect class="cls-3" x="1" y="52.54" width="100" height="100"/><rect class="cls-3" x="128" y="52.54" width="100" height="100"/><rect class="cls-3" x="255" y="52.54" width="100" height="100"/><rect class="cls-3" x="383" y="52.54" width="100" height="100"/><rect class="cls-3" x="510" y="52.54" width="100" height="100"/><rect class="cls-2" x="128" y="187.54" width="100" height="101"/><path class="cls-4" d="M255,239H236" transform="translate(0 -1.46)"/><path class="cls-5" d="M229.7,239l8-4-2,4,2,4Z" transform="translate(0 -1.46)"/><rect class="cls-2" x="255" y="187.54" width="100" height="101"/><path class="cls-4" d="M383,239H363" transform="translate(0 -1.46)"/><path class="cls-5" d="M356.7,239l8-4-2,4,2,4Z" transform="translate(0 -1.46)"/><rect class="cls-2" x="383" y="187.54" width="100" height="101"/><rect class="cls-2" x="510" y="187.54" width="100" height="101"/><rect class="cls-6" x="471" y="194.54" width="50" height="30"/><rect class="cls-6" x="216" y="207.54" width="50" height="30"/><text class="cls-7" transform="translate(229.89 225.54)">EDM</text><rect class="cls-6" x="343" y="207.54" width="50" height="30"/><text class="cls-7" transform="translate(357.89 226.54)">EDM</text><rect class="cls-6" x="11" y="46.54" width="80" height="30"/><text class="cls-8" transform="translate(22.32 64.54)">Reference</text><rect class="cls-6" x="21" y="181.54" width="60" height="30"/><text class="cls-8" transform="translate(29.66 199.54)">Sample</text><rect class="cls-6" x="179" y="152.54" width="50" height="30"/><text class="cls-7" transform="translate(178.46 171.14)">SI<tspan class="cls-9" x="9.45" y="0">L</tspan><tspan x="14.27" y="0">VR</tspan></text><rect class="cls-6" x="563" y="152.54" width="50" height="30"/><text class="cls-7" transform="translate(567.96 171.14)">SI<tspan class="cls-9" x="9.45" y="0">L</tspan><tspan x="14.27" y="0">VR</tspan></text><rect class="cls-6" x="309" y="152.54" width="50" height="30"/><text class="cls-7" transform="translate(305.79 171.14)">SI<tspan class="cls-9" x="9.45" y="0">L</tspan><tspan x="14.27" y="0">VR</tspan></text><rect class="cls-6" x="436" y="152.54" width="50" height="30"/><text class="cls-7" transform="translate(438.98 171.14)">SI<tspan class="cls-9" x="9.45" y="0">L</tspan><tspan x="14.27" y="0">VR</tspan></text><rect class="cls-6" x="578" y="264.54" width="40" height="30"/><text class="cls-8" transform="translate(585.19 282.03)">t=<tspan class="cls-10" x="12.07" y="0">T</tspan></text><rect class="cls-6" x="578" y="127.54" width="40" height="30"/><text class="cls-8" transform="translate(585.04 144.81)">t=<tspan class="cls-10" x="12.07" y="0">T</tspan></text><rect class="cls-6" x="197" y="264.54" width="40" height="30"/><text class="cls-8" transform="translate(203.9 281.54)">t=0</text><rect class="cls-6" x="322" y="264.54" width="40" height="30"/><text class="cls-8" transform="translate(332.38 281.54)">t=1</text><rect class="cls-6" x="452" y="264.54" width="40" height="30"/><text class="cls-8" transform="translate(459.28 281.92)">t=2</text><rect class="cls-6" x="197" y="127.54" width="40" height="30"/><text class="cls-8" transform="translate(203.91 144.54)">t=0</text><rect class="cls-6" x="322" y="127.54" width="40" height="30"/><text class="cls-8" transform="translate(331.91 144.54)">t=1</text><rect class="cls-6" x="452" y="127.54" width="40" height="30"/><text class="cls-8" transform="translate(459.5 144.54)">t=2</text><circle class="cls-11" cx="323.28" cy="230.99" r="6.8" transform="translate(-72.18 191.14) rotate(-30)"/><circle class="cls-12" cx="280" cy="269.14" r="6.8"/><circle class="cls-13" cx="265.39" cy="236.22" r="6.8" transform="translate(-82.55 162.89) rotate(-30)"/><circle class="cls-14" cx="287.28" cy="221.09" r="6.8" transform="translate(-72.06 171.81) rotate(-30)"/><circle class="cls-15" cx="310.8" cy="254.83" r="6.8"/><circle class="cls-16" cx="338.18" cy="216.4" r="6.8" transform="translate(-62.89 196.63) rotate(-30)"/><circle class="cls-16" cx="457.28" cy="231.99" r="6.8" transform="translate(-54.73 258.27) rotate(-30)"/><circle class="cls-17" cx="411" cy="259.14" r="6.8"/><circle class="cls-15" cx="396.39" cy="232.22" r="6.8" transform="translate(-63 227.86) rotate(-30)"/><circle class="cls-18" cx="424.27" cy="220.09" r="6.8" transform="translate(-53.2 240.17) rotate(-30)"/><circle class="cls-15" cx="442.79" cy="252.29" r="6.8" transform="translate(-66.82 253.75) rotate(-30)"/><circle class="cls-13" cx="465.17" cy="206.4" r="6.8" transform="translate(-40.88 258.79) rotate(-30)"/><circle class="cls-16" cx="575.97" cy="236.48" r="6.8" transform="translate(-41.07 318.22) rotate(-30)"/><circle class="cls-19" cx="539.7" cy="253.64" r="6.8"/><circle class="cls-11" cx="535.08" cy="224.71" r="6.8" transform="matrix(0.87, -0.5, 0.5, 0.87, -40.67, 296.2)"/><circle class="cls-14" cx="551.96" cy="230.58" r="6.8" transform="translate(-41.34 305.42) rotate(-30)"/><circle class="cls-13" cx="561.48" cy="255.78" r="6.8" transform="translate(-52.66 313.56) rotate(-30)"/><circle class="cls-18" cx="564.86" cy="213.89" r="6.8" transform="translate(-31.27 309.64) rotate(-30)"/><circle class="cls-11" cx="323.28" cy="86.99" r="6.8" transform="matrix(0.87, -0.5, 0.5, 0.87, -0.18, 171.84)"/><circle class="cls-18" cx="279" cy="132.58" r="6.8" transform="matrix(0.87, -0.5, 0.5, 0.87, -28.91, 155.81)"/><circle class="cls-13" cx="270.39" cy="97.22" r="6.8" transform="matrix(0.87, -0.5, 0.5, 0.87, -12.38, 146.77)"/><circle class="cls-14" cx="288.28" cy="78.1" r="6.8" transform="translate(-0.43 153.15) rotate(-30)"/><circle class="cls-15" cx="312.8" cy="125.29" r="6.8" transform="matrix(0.87, -0.5, 0.5, 0.87, -20.74, 171.73)"/><circle class="cls-16" cx="339.18" cy="77.41" r="6.8" transform="translate(6.74 178.51) rotate(-30)"/><circle class="cls-16" cx="459.28" cy="91.99" r="6.8" transform="matrix(0.87, -0.5, 0.5, 0.87, 15.54, 240.51)"/><circle class="cls-13" cx="419" cy="123.58" r="6.8" transform="translate(-5.65 224.6) rotate(-30)"/><circle class="cls-14" cx="400.39" cy="96.22" r="6.8" transform="matrix(0.87, -0.5, 0.5, 0.87, 5.53, 211.63)"/><circle class="cls-18" cx="424.27" cy="70.1" r="6.8" transform="translate(21.8 220.08) rotate(-30)"/><circle class="cls-14" cx="441.79" cy="120.29" r="6.8" transform="matrix(0.87, -0.5, 0.5, 0.87, -0.95, 235.56)"/><circle class="cls-16" cx="471.17" cy="73.41" r="6.8" transform="translate(26.42 243.97) rotate(-30)"/><circle class="cls-14" cx="571.97" cy="100.48" r="6.8" transform="matrix(0.87, -0.5, 0.5, 0.87, 26.39, 298)"/><circle class="cls-14" cx="552.68" cy="100.07" r="6.8" transform="matrix(0.87, -0.5, 0.5, 0.87, 24.01, 288.3)"/><circle class="cls-16" cx="535.08" cy="92.71" r="6.8" transform="matrix(0.87, -0.5, 0.5, 0.87, 25.33, 278.51)"/><circle class="cls-11" cx="551.96" cy="79.59" r="6.8" transform="matrix(0.87, -0.5, 0.5, 0.87, 34.16, 285.19)"/><circle class="cls-13" cx="562.48" cy="116.78" r="6.8" transform="matrix(0.87, -0.5, 0.5, 0.87, 16.97, 295.44)"/><circle class="cls-18" cx="568.86" cy="80.9" r="6.8" transform="translate(35.77 293.82) rotate(-30)"/><rect class="cls-6" x="353" y="72.54" width="30" height="30"/><text class="cls-8" transform="translate(364.95 90.54)">β</text><circle class="cls-20" cx="192.3" cy="226.54" r="6.8"/><circle class="cls-18" cx="157" cy="267.58" r="6.8" transform="translate(-112.76 112.9) rotate(-30)"/><circle class="cls-19" cx="139.4" cy="238.74" r="6.8"/><circle class="cls-17" cx="161.3" cy="215.64" r="6.8"/><circle class="cls-15" cx="189.8" cy="259.29" r="6.8" transform="translate(-104.22 128.18) rotate(-30)"/><circle class="cls-21" cx="216.2" cy="214.94" r="6.8"/><path class="cls-4" d="M560,154v26" transform="translate(0 -1.46)"/><path class="cls-5" d="M559.5,186.3l-4-8,4,2,4-2Z" transform="translate(0 -1.46)"/><circle class="cls-22" cx="60.9" cy="226.14" r="6.8"/><circle class="cls-23" cx="36.38" cy="266.99" r="6.8" transform="translate(-128.62 52.51) rotate(-30)"/><circle class="cls-22" cx="19.4" cy="237.64" r="6.8"/><circle class="cls-22" cx="30.3" cy="211.84" r="6.8"/><circle class="cls-24" cx="59.51" cy="258.89" r="6.8" transform="translate(-123.41 64.8) rotate(-30.57)"/><circle class="cls-22" cx="81.7" cy="208.84" r="6.8"/><path class="cls-25" d="M76.4,214.6l-10.2,8.7" transform="translate(0 -1.46)"/><path class="cls-25" d="M22.1,232.9l5.5-13.4" transform="translate(0 -1.46)"/><path class="cls-25" d="M42.8,264.7l10.4-3.5" transform="translate(0 -1.46)"/><circle class="cls-20" cx="65" cy="226.54" r="6.8"/><circle class="cls-18" cx="29.62" cy="267.62" r="6.8" transform="translate(-129.84 49.21) rotate(-30)"/><circle class="cls-19" cx="12.1" cy="238.74" r="6.8"/><circle class="cls-17" cx="34" cy="215.64" r="6.8"/><circle class="cls-15" cx="62.5" cy="259.28" r="6.8" transform="translate(-112.32 56.4) rotate(-27.4)"/><circle class="cls-21" cx="88.9" cy="214.94" r="6.8"/><circle class="cls-20" cx="64.9" cy="93.14" r="6.8"/><circle class="cls-12" cx="40.4" cy="132.54" r="6.8"/><circle class="cls-19" cx="23.4" cy="104.74" r="6.8"/><circle class="cls-17" cx="34.3" cy="78.84" r="6.8"/><circle class="cls-26" cx="63.5" cy="124.44" r="6.8"/><circle class="cls-21" cx="85.7" cy="75.84" r="6.8"/><circle class="cls-20" cx="189.9" cy="93.14" r="6.8"/><circle class="cls-12" cx="165.4" cy="132.54" r="6.8"/><circle class="cls-19" cx="148.4" cy="104.74" r="6.8"/><circle class="cls-17" cx="159.3" cy="78.84" r="6.8"/><circle class="cls-26" cx="188.5" cy="124.44" r="6.8"/><circle class="cls-21" cx="210.7" cy="75.84" r="6.8"/><path class="cls-4" d="M101,104h18" transform="translate(0 -1.46)"/><path class="cls-5" d="M125.3,103.5l-8,4,2-4-2-4Z" transform="translate(0 -1.46)"/><path class="cls-4" d="M228,104h18" transform="translate(0 -1.46)"/><path class="cls-5" d="M252.3,103.5l-8,4,2-4-2-4Z" transform="translate(0 -1.46)"/><path class="cls-4" d="M355,104h19" transform="translate(0 -1.46)"/><path class="cls-5" d="M380.3,103.5l-8,4,2-4-2-4Z" transform="translate(0 -1.46)"/><path class="cls-4" d="M128,239H109" transform="translate(0 -1.46)"/><path class="cls-5" d="M102.7,239l8-4-2,4,2,4Z" transform="translate(0 -1.46)"/><path class="cls-4" d="M482.15,104.12h17.3" transform="translate(0 -1.46)"/><path class="cls-5" d="M505.45,104l-8,4,2-4-2-4Z" transform="translate(0 -1.46)"/><line class="cls-27" x1="482.9" y1="112.04" x2="484.4" y2="112.04"/><line class="cls-28" x1="487.4" y1="112.04" x2="498.1" y2="112.04"/><line class="cls-27" x1="499.6" y1="112.04" x2="501.1" y2="112.04"/><path class="cls-29" d="M508.4,122.26l-8,4,2-4-2-4Z" transform="translate(0 -1.46)"/><line class="cls-30" x1="484.6" y1="121.7" x2="486.1" y2="121.7"/><line class="cls-31" x1="488.9" y1="121.7" x2="498.7" y2="121.7"/><line class="cls-30" x1="500.1" y1="121.7" x2="501.6" y2="121.7"/><path class="cls-32" d="M506.3,113.5l-8,4,2-4-2-4Z" transform="translate(0 -1.46)"/><path class="cls-4" d="M433,154v26" transform="translate(0 -1.46)"/><path class="cls-5" d="M432.5,186.3l-4-8,4,2,4-2Z" transform="translate(0 -1.46)"/><path class="cls-4" d="M82.8,219.5,71,224.8" transform="translate(0 -1.46)"/><path class="cls-4" d="M16.8,235.2,29.3,222" transform="translate(0 -1.46)"/><path class="cls-4" d="M36.2,265.8l19.7-4.9" transform="translate(0 -1.46)"/><path class="cls-4" d="M58.6,225.7l-18.2-6.4" transform="translate(0 -1.46)"/><path class="cls-4" d="M64.6,234.8,63,252.5" transform="translate(0 -1.46)"/><path class="cls-4" d="M15.8,246l10.3,15.8" transform="translate(0 -1.46)"/><path class="cls-4" d="M80.4,81.6,70.2,90.3" transform="translate(0 -1.46)"/><path class="cls-4" d="M26.1,99.9l5.4-13.4" transform="translate(0 -1.46)"/><path class="cls-4" d="M46.8,131.7l10.4-3.5" transform="translate(0 -1.46)"/><rect class="cls-6" x="223" y="72.54" width="30" height="30"/><text class="cls-7" transform="translate(234.95 90.54)">β</text><rect class="cls-6" x="477.83" y="58.5" width="30" height="18.04"/><text class="cls-8" transform="translate(488.9 90.54)">β</text><path class="cls-33" d="M131,36V15H589V4l20,21.5L589,47V36Z" transform="translate(0 -1.46)"/><text class="cls-34" transform="translate(340.76 29.54)">Di<tspan class="cls-10" x="13.22" y="0">f</tspan><tspan x="16.86" y="0">fusion...</tspan></text><path class="cls-35" d="M608,328v21l-458,1v11l-19.5-21.5L150,318v11Z" transform="translate(0 -1.46)"/><text class="cls-34" transform="translate(337.32 342.54)">Denoising...</text><path class="cls-4" d="M299,154v27" transform="translate(0 -1.46)"/><path class="cls-5" d="M299.1,186.9l-4-8,4,2,4-2Z" transform="translate(0 -1.46)"/><path class="cls-4" d="M172,154v27" transform="translate(0 -1.46)"/><path class="cls-5" d="M172.2,186.9l-4-8,4,2,4-2Z" transform="translate(0 -1.46)"/><path class="cls-5" d="M608.5,318" transform="translate(0 -1.46)"/><path class="cls-36" d="M-191-265" transform="translate(0 -1.46)"/><polyline class="cls-37" points="560 289.54 560 310.54 433 310.54 433 297.94"/><path class="cls-38" d="M433,291a42.63,42.63,0,0,0,6.7,12l-6.7-2.4-6.7,2.4A42.63,42.63,0,0,0,433,291Z" transform="translate(0 -1.46)"/><line class="cls-39" x1="565" y1="289.54" x2="565" y2="292.04"/><line class="cls-40" x1="565" y1="296.24" x2="565" y2="310.94"/><polyline class="cls-39" points="565 313.04 565 315.54 562.5 315.54"/><line class="cls-41" x1="557.4" y1="315.54" x2="449" y2="315.54"/><polyline class="cls-39" points="446.5 315.54 444 315.54 444 313.04"/><line class="cls-42" x1="444" y1="308.84" x2="444" y2="302.54"/><line class="cls-39" x1="444" y1="300.44" x2="444" y2="297.94"/><path class="cls-43" d="M444,291a42.63,42.63,0,0,0,6.7,12l-6.7-2.4-6.7,2.4A42.63,42.63,0,0,0,444,291Z" transform="translate(0 -1.46)"/><line class="cls-44" x1="572" y1="288.54" x2="572" y2="291.04"/><line class="cls-45" x1="572" y1="296.44" x2="572" y2="315.34"/><polyline class="cls-44" points="572 318.04 572 320.54 569.5 320.54"/><line class="cls-46" x1="564.7" y1="320.54" x2="461.9" y2="320.54"/><polyline class="cls-44" points="459.5 320.54 457 320.54 457 318.04"/><line class="cls-47" x1="457" y1="311.84" x2="457" y2="302.54"/><line class="cls-44" x1="457" y1="299.44" x2="457" y2="296.94"/><path class="cls-48" d="M457,290a42.63,42.63,0,0,0,6.7,12l-6.7-2.4-6.7,2.4A42.63,42.63,0,0,0,457,290Z" transform="translate(0 -1.46)"/><text class="cls-8" transform="translate(493.26 306.8)">EDM</text><path class="cls-49" d="M0,0" transform="translate(0 -1.46)"/><path d="M453.5,318" transform="translate(0 -1.46)"/></svg>