<?xml version="1.0" encoding="utf-8"?>
<!-- Generator: Adobe Illustrator 25.0.1, SVG Export Plug-In . SVG Version: 6.00 Build 0)  -->
<svg version="1.1" id="Layer_1" xmlns="http://www.w3.org/2000/svg" xmlns:xlink="http://www.w3.org/1999/xlink" x="0px" y="0px"
	 viewBox="0 0 618 362.1" style="enable-background:new 0 0 618 362.1;" xml:space="preserve">
<style type="text/css">
	.st0{fill:none;}
	.st1{fill:none;stroke:#D7B756;stroke-width:2;}
	.st2{fill:none;stroke:#6C8EBF;stroke-width:2;}
	.st3{fill:none;stroke:#595959;stroke-width:2;stroke-miterlimit:10;}
	.st4{fill:#595959;stroke:#595959;stroke-width:2;stroke-miterlimit:10;}
	.st5{fill:#595959;}
	.st6{font-family:'Helvetica';}
	.st7{font-size:9.088px;}
	.st8{font-size:10px;}
	.st9{font-size:14px;}
	.st10{fill:#E1D5E7;stroke:#9673A6;stroke-width:2;}
	.st11{fill:#DAE8FC;stroke:#6C8EBF;stroke-width:2;}
	.st12{fill:#FFF2CC;stroke:#D6B656;stroke-width:2;}
	.st13{fill:#D5E8D4;stroke:#82B366;stroke-width:2;}
	.st14{fill:#FFE6CC;stroke:#D79B00;stroke-width:2;}
	.st15{fill:#F8CECC;stroke:#B85450;stroke-width:2;}
	.st16{fill:#E1D5E7;stroke:#9673A6;stroke-width:2.0069;stroke-miterlimit:4.0138;}
	.st17{fill:#DAE8FC;stroke:#6C8EBF;stroke-width:2.0069;stroke-miterlimit:4.0138;}
	.st18{fill:#FFF2CC;stroke:#D6B656;stroke-width:2.0069;stroke-miterlimit:4.0138;}
	.st19{fill:#FFE6CC;stroke:#D79B00;stroke-width:2.0069;stroke-miterlimit:4.0138;}
	.st20{fill:#F8CECC;stroke:#B85450;stroke-width:2.0069;stroke-miterlimit:4.0138;}
	.st21{fill:#D5E8D4;stroke:#82B366;stroke-width:2.0069;stroke-miterlimit:4.0138;}
	.st22{fill:#FFFFFF;stroke:#CFCFCF;stroke-width:2;}
	.st23{fill:none;stroke:#CFCFCF;stroke-width:2;stroke-miterlimit:10;}
	.st24{fill:none;stroke:#6C8EBF;stroke-width:2.0618;stroke-miterlimit:10;}
	.st25{fill:none;stroke:#D7B756;stroke-width:2.0639;stroke-miterlimit:10;}
	.st26{fill:#575756;}
	.st27{font-family:'MyriadPro-Regular';}
	.st28{font-size:16px;}
</style>
<path class="st0" d="M0-1.5"/>
<rect x="1" y="187.5" class="st1" width="100" height="101"/>
<rect x="1" y="52.5" class="st2" width="100" height="100"/>
<rect x="128" y="52.5" class="st2" width="100" height="100"/>
<rect x="255" y="52.5" class="st2" width="100" height="100"/>
<rect x="383" y="52.5" class="st2" width="100" height="100"/>
<rect x="539" y="52.5" class="st2" width="100" height="100"/>
<rect x="128" y="187.5" class="st1" width="100" height="101"/>
<line class="st3" x1="255" y1="237.5" x2="236" y2="237.5"/>
<path class="st4" d="M229.7,237.5l8-4l-2,4l2,4L229.7,237.5z"/>
<rect x="255" y="187.5" class="st1" width="100" height="101"/>
<line class="st3" x1="383" y1="237.5" x2="363" y2="237.5"/>
<path class="st4" d="M356.7,237.5l8-4l-2,4l2,4L356.7,237.5z"/>
<rect x="383" y="187.5" class="st1" width="100" height="101"/>
<rect x="539" y="187.5" class="st1" width="100" height="101"/>
<rect x="484" y="195.1" class="st0" width="50" height="30"/>
<rect x="216" y="207.5" class="st0" width="50" height="20.4"/>
<text transform="matrix(1.1004 0 0 1 229.6997 224.757)" class="st5 st6 st7">EDM</text>
<rect x="343" y="207.5" class="st0" width="50" height="22"/>
<text transform="matrix(1 0 0 1 357.89 224.54)" class="st5 st6 st8">EDM</text>
<rect x="11" y="46.5" class="st0" width="80" height="30"/>
<text transform="matrix(1 0 0 1 22.32 64.54)" class="st5 st6 st9">Reference</text>
<rect x="21" y="181.5" class="st0" width="60" height="30"/>
<text transform="matrix(1 0 0 1 29.66 199.54)" class="st5 st6 st9">Sample</text>
<rect x="179" y="152.5" class="st0" width="50" height="30"/>
<text transform="matrix(1 0 0 1 178.46 171.14)" class="st5 st6 st8">SI</text>
<text transform="matrix(1 0 0 1 187.91 171.14)" class="st5 st6 st8">L</text>
<text transform="matrix(1 0 0 1 192.73 171.14)" class="st5 st6 st8">VR</text>
<rect x="592" y="152.5" class="st0" width="50" height="30"/>
<text transform="matrix(1 0 0 1 596.96 171.14)" class="st5 st6 st8">SI</text>
<text transform="matrix(1 0 0 1 606.41 171.14)" class="st5 st6 st8">L</text>
<text transform="matrix(1 0 0 1 611.23 171.14)" class="st5 st6 st8">VR</text>
<rect x="309" y="152.5" class="st0" width="50" height="30"/>
<text transform="matrix(1 0 0 1 305.79 171.14)" class="st5 st6 st8">SI</text>
<text transform="matrix(1 0 0 1 315.24 171.14)" class="st5 st6 st8">L</text>
<text transform="matrix(1 0 0 1 320.06 171.14)" class="st5 st6 st8">VR</text>
<rect x="436" y="152.5" class="st0" width="50" height="30"/>
<text transform="matrix(1 0 0 1 438.98 171.14)" class="st5 st6 st8">SI</text>
<text transform="matrix(1 0 0 1 448.43 171.14)" class="st5 st6 st8">L</text>
<text transform="matrix(1 0 0 1 453.25 171.14)" class="st5 st6 st8">VR</text>
<rect x="607" y="264.5" class="st0" width="40" height="30"/>
<text transform="matrix(1 0 0 1 614.19 282.03)" class="st5 st6 st9">t=</text>
<text transform="matrix(1 0 0 1 626.26 282.03)" class="st5 st6 st9">T</text>
<rect x="607" y="127.5" class="st0" width="40" height="30"/>
<text transform="matrix(1 0 0 1 614.04 144.81)" class="st5 st6 st9">t=</text>
<text transform="matrix(1 0 0 1 626.11 144.81)" class="st5 st6 st9">T</text>
<rect x="197" y="264.5" class="st0" width="40" height="30"/>
<text transform="matrix(1 0 0 1 203.9 281.54)" class="st5 st6 st9">t=0</text>
<rect x="322" y="264.5" class="st0" width="40" height="30"/>
<text transform="matrix(1 0 0 1 332.38 281.54)" class="st5 st6 st9">t=1</text>
<rect x="452" y="264.5" class="st0" width="40" height="30"/>
<text transform="matrix(1 0 0 1 459.28 281.92)" class="st5 st6 st9">t=2</text>
<rect x="197" y="127.5" class="st0" width="40" height="30"/>
<rect x="322" y="127.5" class="st0" width="40" height="30"/>
<text transform="matrix(1 0 0 1 331.91 144.54)" class="st5 st6 st9">t=1</text>
<rect x="452" y="127.5" class="st0" width="40" height="30"/>
<text transform="matrix(1 0 0 1 459.5 144.54)" class="st5 st6 st9">t=2</text>
<ellipse transform="matrix(0.866 -0.5 0.5 0.866 -71.4598 192.3948)" class="st10" cx="323.3" cy="229.5" rx="6.8" ry="6.8"/>
<circle class="st11" cx="280" cy="269.1" r="6.8"/>
<ellipse transform="matrix(0.866 -0.5 0.5 0.866 -81.8276 164.1501)" class="st12" cx="265.4" cy="234.8" rx="6.8" ry="6.8"/>
<ellipse transform="matrix(0.866 -0.5 0.5 0.866 -71.332 173.0645)" class="st13" cx="287.3" cy="219.6" rx="6.8" ry="6.8"/>
<circle class="st14" cx="310.8" cy="254.8" r="6.8"/>
<ellipse transform="matrix(0.866 -0.5 0.5 0.866 -62.1661 197.8888)" class="st15" cx="338.2" cy="214.9" rx="6.8" ry="6.8"/>
<ellipse transform="matrix(0.866 -0.5 0.5 0.866 -54.0056 259.5269)" class="st15" cx="457.3" cy="230.5" rx="6.8" ry="6.8"/>
<circle class="st13" cx="411" cy="259.1" r="6.8"/>
<ellipse transform="matrix(0.866 -0.5 0.5 0.866 -62.28 229.1147)" class="st14" cx="396.4" cy="230.8" rx="6.8" ry="6.8"/>
<ellipse transform="matrix(0.866 -0.5 0.5 0.866 -52.4774 241.4288)" class="st11" cx="424.3" cy="218.6" rx="6.8" ry="6.8"/>
<ellipse transform="matrix(0.866 -0.5 0.5 0.866 -66.0993 255.003)" class="st14" cx="442.8" cy="250.8" rx="6.8" ry="6.8"/>
<ellipse transform="matrix(0.866 -0.5 0.5 0.866 -40.1555 260.043)" class="st12" cx="465.2" cy="205" rx="6.8" ry="6.8"/>
<ellipse transform="matrix(0.866 -0.5 0.5 0.866 -36.4651 333.9757)" class="st15" cx="605" cy="235" rx="6.8" ry="6.8"/>
<circle class="st12" cx="568.7" cy="253.6" r="6.8"/>
<ellipse transform="matrix(0.867 -0.4983 0.4983 0.867 -36.3969 311.9405)" class="st16" cx="566.2" cy="224.2" rx="6.8" ry="6.8"/>
<ellipse transform="matrix(0.866 -0.5 0.5 0.866 -36.73 321.1781)" class="st13" cx="581" cy="229.1" rx="6.8" ry="6.8"/>
<circle class="st12" cx="590.5" cy="254.3" r="6.8"/>
<ellipse transform="matrix(0.866 -0.5 0.5 0.866 -26.6602 325.3912)" class="st11" cx="593.9" cy="212.4" rx="6.8" ry="6.8"/>
<ellipse transform="matrix(0.867 -0.4983 0.4983 0.867 0.3698 173.1483)" class="st16" cx="324.6" cy="85.9" rx="6.8" ry="6.8"/>
<ellipse transform="matrix(0.867 -0.4983 0.4983 0.867 -28.3506 157.0825)" class="st17" cx="280.1" cy="131.7" rx="6.8" ry="6.8"/>
<ellipse transform="matrix(0.867 -0.4983 0.4983 0.867 -11.8115 148.0562)" class="st18" cx="271.5" cy="96.2" rx="6.8" ry="6.8"/>
<ellipse transform="matrix(0.866 -0.5 0.5 0.866 0.2986 154.4076)" class="st13" cx="288.3" cy="76.6" rx="6.8" ry="6.8"/>
<ellipse transform="matrix(0.867 -0.4983 0.4983 0.867 -20.1897 173.016)" class="st19" cx="314" cy="124.3" rx="6.8" ry="6.8"/>
<ellipse transform="matrix(0.866 -0.5 0.5 0.866 7.4625 179.7683)" class="st15" cx="339.2" cy="76" rx="6.8" ry="6.8"/>
<ellipse transform="matrix(0.867 -0.4983 0.4983 0.867 16.0264 241.8516)" class="st20" cx="461.1" cy="90.9" rx="6.8" ry="6.8"/>
<ellipse transform="matrix(0.866 -0.5 0.5 0.866 -4.9257 225.8638)" class="st12" cx="419" cy="122.1" rx="6.8" ry="6.8"/>
<ellipse transform="matrix(0.867 -0.4983 0.4983 0.867 6.0477 212.953)" class="st21" cx="402" cy="95.1" rx="6.8" ry="6.8"/>
<ellipse transform="matrix(0.866 -0.5 0.5 0.866 22.5159 221.3371)" class="st11" cx="424.3" cy="68.7" rx="6.8" ry="6.8"/>
<ellipse transform="matrix(0.867 -0.4983 0.4983 0.867 -0.4676 236.8825)" class="st21" cx="443.6" cy="119.3" rx="6.8" ry="6.8"/>
<ellipse transform="matrix(0.866 -0.5 0.5 0.866 27.1449 245.2259)" class="st15" cx="471.2" cy="72" rx="6.8" ry="6.8"/>
<ellipse transform="matrix(0.867 -0.4983 0.4983 0.867 30.6774 313.8098)" class="st21" cx="603.2" cy="99.4" rx="6.8" ry="6.8"/>
<ellipse transform="matrix(0.867 -0.4983 0.4983 0.867 28.3069 304.1047)" class="st21" cx="583.9" cy="99" rx="6.8" ry="6.8"/>
<ellipse transform="matrix(0.867 -0.4983 0.4983 0.867 29.6407 294.3158)" class="st20" cx="566.2" cy="91.6" rx="6.8" ry="6.8"/>
<ellipse transform="matrix(0.867 -0.4983 0.4983 0.867 38.4602 301.0125)" class="st16" cx="583.2" cy="78.5" rx="6.8" ry="6.8"/>
<ellipse transform="matrix(0.867 -0.4983 0.4983 0.867 21.2556 311.2395)" class="st18" cx="593.7" cy="115.8" rx="6.8" ry="6.8"/>
<ellipse transform="matrix(0.866 -0.5 0.5 0.866 40.3733 309.5781)" class="st11" cx="597.9" cy="79.5" rx="6.8" ry="6.8"/>
<rect x="353" y="72.5" class="st0" width="30" height="30"/>
<text transform="matrix(1 0 0 1 364.95 90.54)" class="st5 st6 st9">β</text>
<circle class="st10" cx="192.3" cy="226.5" r="6.8"/>
<ellipse transform="matrix(0.866 -0.5 0.5 0.866 -112.0321 114.1528)" class="st11" cx="157" cy="266.1" rx="6.8" ry="6.8"/>
<circle class="st12" cx="139.4" cy="238.7" r="6.8"/>
<circle class="st13" cx="161.3" cy="215.6" r="6.8"/>
<ellipse transform="matrix(0.866 -0.5 0.5 0.866 -103.4879 129.4412)" class="st14" cx="189.8" cy="257.8" rx="6.8" ry="6.8"/>
<circle class="st15" cx="216.2" cy="214.9" r="6.8"/>
<line class="st3" x1="589" y1="152.5" x2="589" y2="178.5"/>
<path class="st4" d="M588.5,184.8l-4-8l4,2l4-2L588.5,184.8z"/>
<circle class="st22" cx="60.9" cy="226.1" r="6.8"/>
<ellipse transform="matrix(0.866 -0.5 0.5 0.866 -127.8959 53.7661)" class="st22" cx="36.4" cy="265.5" rx="6.8" ry="6.8"/>
<circle class="st22" cx="19.4" cy="237.6" r="6.8"/>
<circle class="st22" cx="30.3" cy="211.8" r="6.8"/>
<ellipse transform="matrix(0.861 -0.5086 0.5086 0.861 -122.6621 66.042)" class="st22" cx="59.5" cy="257.4" rx="6.8" ry="6.8"/>
<circle class="st22" cx="81.7" cy="208.8" r="6.8"/>
<line class="st23" x1="76.4" y1="213.1" x2="66.2" y2="221.8"/>
<line class="st23" x1="22.1" y1="231.4" x2="27.6" y2="218"/>
<line class="st23" x1="42.8" y1="263.2" x2="53.2" y2="259.7"/>
<circle class="st10" cx="65" cy="226.5" r="6.8"/>
<ellipse transform="matrix(0.866 -0.5 0.5 0.866 -129.1143 50.4703)" class="st11" cx="29.6" cy="266.2" rx="6.8" ry="6.8"/>
<circle class="st12" cx="12.1" cy="238.7" r="6.8"/>
<circle class="st13" cx="34" cy="215.6" r="6.8"/>
<ellipse transform="matrix(0.9078 -0.4195 0.4195 0.9078 -102.3947 49.997)" class="st14" cx="62.5" cy="257.8" rx="6.8" ry="6.8"/>
<circle class="st15" cx="88.9" cy="214.9" r="6.8"/>
<circle class="st10" cx="64.9" cy="93.1" r="6.8"/>
<circle class="st11" cx="40.4" cy="132.5" r="6.8"/>
<circle class="st12" cx="23.4" cy="104.7" r="6.8"/>
<circle class="st13" cx="34.3" cy="78.8" r="6.8"/>
<circle class="st14" cx="63.5" cy="124.4" r="6.8"/>
<circle class="st15" cx="85.7" cy="75.8" r="6.8"/>
<circle class="st10" cx="189.9" cy="93.1" r="6.8"/>
<circle class="st11" cx="165.4" cy="132.5" r="6.8"/>
<circle class="st12" cx="148.4" cy="104.7" r="6.8"/>
<circle class="st13" cx="159.3" cy="78.8" r="6.8"/>
<circle class="st14" cx="188.5" cy="124.4" r="6.8"/>
<circle class="st15" cx="210.7" cy="75.8" r="6.8"/>
<line class="st3" x1="101" y1="102.5" x2="119" y2="102.5"/>
<path class="st4" d="M125.3,102l-8,4l2-4l-2-4L125.3,102z"/>
<line class="st3" x1="228" y1="102.5" x2="246" y2="102.5"/>
<path class="st4" d="M252.3,102l-8,4l2-4l-2-4L252.3,102z"/>
<line class="st3" x1="355" y1="102.5" x2="374" y2="102.5"/>
<path class="st4" d="M380.3,102l-8,4l2-4l-2-4L380.3,102z"/>
<line class="st3" x1="128" y1="237.5" x2="109" y2="237.5"/>
<path class="st4" d="M102.7,237.5l8-4l-2,4l2,4L102.7,237.5z"/>
<line class="st3" x1="433" y1="152.5" x2="433" y2="178.5"/>
<path class="st4" d="M432.5,184.8l-4-8l4,2l4-2L432.5,184.8z"/>
<line class="st3" x1="82.8" y1="218" x2="71" y2="223.3"/>
<line class="st3" x1="16.8" y1="233.7" x2="29.3" y2="220.5"/>
<line class="st3" x1="36.2" y1="264.3" x2="55.9" y2="259.4"/>
<line class="st3" x1="58.6" y1="224.2" x2="40.4" y2="217.8"/>
<line class="st3" x1="64.6" y1="233.3" x2="63" y2="251"/>
<line class="st3" x1="15.8" y1="244.5" x2="26.1" y2="260.3"/>
<line class="st3" x1="80.4" y1="80.1" x2="70.2" y2="88.8"/>
<line class="st3" x1="26.1" y1="98.4" x2="31.5" y2="85"/>
<line class="st3" x1="46.8" y1="130.2" x2="57.2" y2="126.7"/>
<rect x="223" y="72.5" class="st0" width="30" height="30"/>
<text transform="matrix(1 0 0 1 234.95 90.54)" class="st5 st6 st9">β</text>
<text transform="matrix(1 0 0 1 502.8506 91.0914)" class="st5 st6 st9">β</text>
<path class="st24" d="M131,34.5v-21h486.7v-11L639,24l-21.3,21.5v-11H131z"/>
<text transform="matrix(1 0 0 1 340.76 29.54)" class="st6 st9">Di</text>
<text transform="matrix(1 0 0 1 353.98 29.54)" class="st6 st9">f</text>
<text transform="matrix(1 0 0 1 357.62 29.54)" class="st6 st9">fusion...</text>
<path class="st25" d="M639,306.5v21l-487.7,1v11L130.5,318l20.8-21.5v11L639,306.5z"/>
<text transform="matrix(1 0 0 1 337.32 322.54)" class="st6 st9">Denoising...</text>
<line class="st3" x1="299" y1="152.5" x2="299" y2="179.5"/>
<path class="st4" d="M299.1,185.4l-4-8l4,2l4-2L299.1,185.4z"/>
<line class="st3" x1="172" y1="152.5" x2="172" y2="179.5"/>
<path class="st4" d="M172.2,185.4l-4-8l4,2l4-2L172.2,185.4z"/>
<path class="st4" d="M608.5,316.5"/>
<path class="st5" d="M-191-266.5"/>
<text transform="matrix(1 0 0 1 497.9164 224.2411)" class="st5 st6 st8">EDM</text>
<path class="st5" d="M0-1.5"/>
<text transform="matrix(1 0 0 1 504.0827 103.7885)" class="st26 st27 st28">...</text>
<text transform="matrix(1 0 0 1 505.2613 238.344)" class="st26 st27 st28">...</text>
<path class="st3" d="M539,237.6"/>
<g>
	<g>
		<path class="st3" d="M532,103c-3.4,0.1-6.7,0.1-10.1,0.2"/>
		<g>
			<path class="st5" d="M538,102.8c-2.9-1-6.4-2.7-8.6-4.6l1.8,4.7l-1.6,4.8C531.7,105.8,535.2,104,538,102.8z"/>
		</g>
	</g>
</g>
<g>
	<g>
		<line class="st3" x1="538" y1="238.1" x2="526" y2="238.1"/>
		<g>
			<path class="st5" d="M520,238.1c2.8-1.1,6.4-2.9,8.5-4.8l-1.7,4.8l1.7,4.8C526.4,241,522.8,239.2,520,238.1z"/>
		</g>
	</g>
</g>
<g>
	<g>
		<line class="st3" x1="500" y1="238.1" x2="490" y2="238.1"/>
		<g>
			<path class="st5" d="M484,238.1c2.8-1.1,6.4-2.9,8.5-4.8l-1.7,4.8l1.7,4.8C490.4,241,486.8,239.2,484,238.1z"/>
		</g>
	</g>
</g>
<g>
	<line class="st26" x1="484" y1="103.1" x2="501" y2="103.1"/>
	<g>
		<line class="st3" x1="484" y1="103.1" x2="495" y2="103.1"/>
		<g>
			<path class="st5" d="M501,103.1c-2.8,1.1-6.4,2.9-8.5,4.8l1.7-4.8l-1.7-4.8C494.6,100.3,498.2,102.1,501,103.1z"/>
		</g>
	</g>
</g>
<g id="_x34_x4kIg.tif">
	
		<image style="overflow:visible;" width="34" height="23" id="Layer_0" xlink:href="D9E917785822C410.png"  transform="matrix(0.4379 0 0 0.3687 208.5565 140.3006)">
	</image>
</g>
</svg>
